<?xml version="1.0" standalone="no"?>
<!DOCTYPE svg PUBLIC "-//W3C//DTD SVG 20010904//EN"
 "http://www.w3.org/TR/2001/REC-SVG-20010904/DTD/svg10.dtd">
<svg version="1.0" xmlns="http://www.w3.org/2000/svg"
 width="377.000000pt" height="377.000000pt" viewBox="0 0 377.000000 377.000000"
 preserveAspectRatio="xMidYMid meet">
<metadata>
Created by potrace 1.11, written by Peter Selinger 2001-2013
</metadata>
<g transform="translate(0.000000,377.000000) scale(0.100000,-0.100000)"
fill="#000000" stroke="none">
<path d="M0 1890 l0 -1780 1885 0 1885 0 0 1780 0 1780 -1885 0 -1885 0 0
-1780z m2135 1669 c83 -11 307 -61 360 -81 17 -6 54 -22 83 -35 29 -12 55 -23
57 -23 11 0 165 -79 225 -115 178 -108 367 -279 490 -444 l53 -71 53 0 54 0 0
-96 c0 -82 4 -103 26 -152 105 -228 158 -530 134 -775 -19 -200 -72 -408 -135
-532 -23 -46 -25 -61 -25 -177 l0 -128 -74 0 -74 0 -65 -78 c-190 -227 -441
-407 -727 -520 -328 -130 -711 -161 -1075 -86 -159 32 -266 69 -439 150 -205
95 -410 256 -579 451 l-71 83 -68 0 -68 0 0 112 c0 110 -1 115 -41 207 -102
233 -151 517 -130 757 17 196 65 385 137 542 30 65 34 83 34 158 l0 84 48 0
47 0 78 99 c269 342 647 568 1098 655 178 35 397 40 594 15z"/>
<path d="M1680 2170 c0 -123 1 -130 20 -130 11 0 23 0 28 0 4 0 9 28 12 62 4
55 8 63 25 63 18 0 20 -8 23 -61 3 -60 4 -62 32 -66 29 -4 30 -4 32 41 4 122
-7 144 -68 139 l-44 -3 0 42 c0 41 -1 43 -30 43 l-30 0 0 -130z"/>
<path d="M2110 2245 c-5 -14 -14 -25 -20 -25 -16 0 -12 -40 5 -46 11 -5 15
-21 15 -60 0 -61 20 -83 70 -76 23 3 30 9 30 27 0 14 -7 25 -20 28 -15 4 -20
14 -20 42 0 28 5 38 20 42 11 3 20 13 20 23 0 10 -9 20 -20 23 -12 3 -20 14
-20 26 0 32 -48 29 -60 -4z"/>
<path d="M1908 2210 c-27 -16 -41 -74 -28 -115 14 -43 35 -55 95 -55 35 0 51
6 70 25 32 31 34 91 4 129 -17 22 -28 26 -72 26 -29 0 -60 -5 -69 -10z m96
-62 c15 -25 -4 -53 -35 -53 -19 0 -25 6 -27 29 -5 45 38 61 62 24z"/>
<path d="M1475 1710 l0 -130 76 0 c95 0 114 15 114 95 0 72 -16 88 -77 83
l-48 -5 0 43 c0 43 -1 44 -32 44 l-33 0 0 -130z m123 -17 c11 -20 -1 -63 -17
-63 -24 0 -41 14 -41 34 0 42 41 62 58 29z"/>
<path d="M1716 1739 c-26 -23 -31 -35 -31 -72 0 -66 23 -87 97 -87 56 0 58 1
58 26 0 23 -3 25 -28 20 -17 -4 -35 -1 -47 8 -19 14 -16 15 38 16 l57 0 0 33
c0 41 -32 73 -79 79 -27 4 -40 -1 -65 -23z m75 -34 c0 -5 -9 -11 -21 -13 -20
-3 -27 8 -13 22 10 9 34 3 34 -9z"/>
<path d="M2070 1768 c-1 -2 -2 -45 -3 -96 l-2 -92 32 0 32 0 3 63 c3 54 5 62
23 62 18 0 20 -8 23 -62 3 -62 3 -63 32 -63 33 0 34 6 30 110 -2 63 -12 70
-85 69 -35 -1 -68 2 -74 6 -6 3 -11 5 -11 3z"/>
<path d="M1893 1749 c-6 -6 -8 -19 -6 -30 6 -22 5 -22 38 -7 19 8 29 8 37 0 8
-8 1 -12 -26 -18 -46 -8 -66 -27 -66 -63 0 -38 19 -52 71 -50 24 1 49 0 54 -1
36 -9 45 0 45 48 0 56 -15 112 -32 124 -19 12 -102 10 -115 -3z m77 -103 c0
-20 -19 -31 -32 -18 -6 6 -7 15 -4 21 10 16 36 13 36 -3z"/>
<path d="M2288 1749 c-12 -6 -18 -22 -18 -45 0 -29 5 -37 35 -51 40 -19 28
-37 -17 -27 -25 5 -28 3 -28 -20 0 -25 3 -26 55 -26 56 0 95 22 95 53 0 22
-29 55 -55 61 -36 9 -20 29 16 21 26 -6 29 -4 29 19 0 24 -3 26 -47 26 -27 0
-56 -5 -65 -11z"/>
</g>
</svg>
